<svg width="174" height="48" viewBox="0 0 174 48" fill="none" xmlns="http://www.w3.org/2000/svg">
<path d="M72.016 12.664C74.3627 12.664 76.4213 13.1227 78.192 14.04C79.984 14.9573 81.36 16.2693 82.32 17.976C83.3013 19.6613 83.792 21.624 83.792 23.864C83.792 26.104 83.3013 28.0667 82.32 29.752C81.36 31.416 79.984 32.7067 78.192 33.624C76.4213 34.5413 74.3627 35 72.016 35H64.208V12.664H72.016ZM71.856 31.192C74.2027 31.192 76.016 30.552 77.296 29.272C78.576 27.992 79.216 26.1893 79.216 23.864C79.216 21.5387 78.576 19.7253 77.296 18.424C76.016 17.1013 74.2027 16.44 71.856 16.44H68.688V31.192H71.856ZM103.626 25.752C103.626 26.392 103.583 26.968 103.498 27.48H90.5375C90.6442 28.76 91.0922 29.7627 91.8815 30.488C92.6708 31.2133 93.6415 31.576 94.7935 31.576C96.4575 31.576 97.6415 30.8613 98.3455 29.432H103.178C102.666 31.1387 101.684 32.5467 100.234 33.656C98.7828 34.744 97.0015 35.288 94.8895 35.288C93.1828 35.288 91.6468 34.9147 90.2815 34.168C88.9375 33.4 87.8815 32.3227 87.1135 30.936C86.3668 29.5493 85.9935 27.9493 85.9935 26.136C85.9935 24.3013 86.3668 22.6907 87.1135 21.304C87.8602 19.9173 88.9055 18.8507 90.2495 18.104C91.5935 17.3573 93.1402 16.984 94.8895 16.984C96.5748 16.984 98.0788 17.3467 99.4015 18.072C100.746 18.7973 101.78 19.832 102.506 21.176C103.252 22.4987 103.626 24.024 103.626 25.752ZM98.9855 24.472C98.9642 23.32 98.5482 22.4027 97.7375 21.72C96.9268 21.016 95.9348 20.664 94.7615 20.664C93.6522 20.664 92.7135 21.0053 91.9455 21.688C91.1988 22.3493 90.7402 23.2773 90.5695 24.472H98.9855ZM113.68 35.288C112.229 35.288 110.928 35.032 109.776 34.52C108.624 33.9867 107.706 33.272 107.024 32.376C106.362 31.48 106 30.488 105.936 29.4H110.448C110.533 30.0827 110.864 30.648 111.44 31.096C112.037 31.544 112.773 31.768 113.648 31.768C114.501 31.768 115.162 31.5973 115.632 31.256C116.122 30.9147 116.368 30.4773 116.368 29.944C116.368 29.368 116.069 28.9413 115.472 28.664C114.896 28.3653 113.968 28.0453 112.688 27.704C111.365 27.384 110.277 27.0533 109.424 26.712C108.592 26.3707 107.866 25.848 107.248 25.144C106.65 24.44 106.352 23.4907 106.352 22.296C106.352 21.3147 106.629 20.4187 107.184 19.608C107.76 18.7973 108.57 18.1573 109.616 17.688C110.682 17.2187 111.93 16.984 113.36 16.984C115.472 16.984 117.157 17.5173 118.416 18.584C119.674 19.6293 120.368 21.048 120.496 22.84H116.208C116.144 22.136 115.845 21.5813 115.312 21.176C114.8 20.7493 114.106 20.536 113.232 20.536C112.421 20.536 111.792 20.6853 111.344 20.984C110.917 21.2827 110.704 21.6987 110.704 22.232C110.704 22.8293 111.002 23.288 111.6 23.608C112.197 23.9067 113.125 24.216 114.384 24.536C115.664 24.856 116.72 25.1867 117.552 25.528C118.384 25.8693 119.098 26.4027 119.696 27.128C120.314 27.832 120.634 28.7707 120.656 29.944C120.656 30.968 120.368 31.8853 119.792 32.696C119.237 33.5067 118.426 34.1467 117.36 34.616C116.314 35.064 115.088 35.288 113.68 35.288ZM126.605 15.16C125.816 15.16 125.154 14.9147 124.621 14.424C124.109 13.912 123.853 13.2827 123.853 12.536C123.853 11.7893 124.109 11.1707 124.621 10.68C125.154 10.168 125.816 9.912 126.605 9.912C127.394 9.912 128.045 10.168 128.557 10.68C129.09 11.1707 129.357 11.7893 129.357 12.536C129.357 13.2827 129.09 13.912 128.557 14.424C128.045 14.9147 127.394 15.16 126.605 15.16ZM128.813 17.272V35H124.333V17.272H128.813ZM140.183 16.984C141.506 16.984 142.669 17.2507 143.671 17.784C144.674 18.296 145.463 18.968 146.039 19.8V17.272H150.551V35.128C150.551 36.7707 150.221 38.232 149.559 39.512C148.898 40.8133 147.906 41.8373 146.583 42.584C145.261 43.352 143.661 43.736 141.783 43.736C139.266 43.736 137.197 43.1493 135.575 41.976C133.975 40.8027 133.069 39.2027 132.855 37.176H137.303C137.538 37.9867 138.039 38.6267 138.807 39.096C139.597 39.5867 140.546 39.832 141.655 39.832C142.957 39.832 144.013 39.4373 144.823 38.648C145.634 37.88 146.039 36.7067 146.039 35.128V32.376C145.463 33.208 144.663 33.9013 143.639 34.456C142.637 35.0107 141.485 35.288 140.183 35.288C138.69 35.288 137.325 34.904 136.087 34.136C134.85 33.368 133.869 32.2907 133.143 30.904C132.439 29.496 132.087 27.8853 132.087 26.072C132.087 24.28 132.439 22.6907 133.143 21.304C133.869 19.9173 134.839 18.8507 136.055 18.104C137.293 17.3573 138.669 16.984 140.183 16.984ZM146.039 26.136C146.039 25.048 145.826 24.12 145.399 23.352C144.973 22.5627 144.397 21.9653 143.671 21.56C142.946 21.1333 142.167 20.92 141.335 20.92C140.503 20.92 139.735 21.1227 139.031 21.528C138.327 21.9333 137.751 22.5307 137.303 23.32C136.877 24.088 136.663 25.0053 136.663 26.072C136.663 27.1387 136.877 28.0773 137.303 28.888C137.751 29.6773 138.327 30.2853 139.031 30.712C139.757 31.1387 140.525 31.352 141.335 31.352C142.167 31.352 142.946 31.1493 143.671 30.744C144.397 30.3173 144.973 29.72 145.399 28.952C145.826 28.1627 146.039 27.224 146.039 26.136ZM164.751 17.016C166.863 17.016 168.569 17.688 169.871 19.032C171.172 20.3547 171.823 22.2107 171.823 24.6V35H167.343V25.208C167.343 23.8 166.991 22.7227 166.287 21.976C165.583 21.208 164.623 20.824 163.407 20.824C162.169 20.824 161.188 21.208 160.463 21.976C159.759 22.7227 159.407 23.8 159.407 25.208V35H154.927V17.272H159.407V19.48C160.004 18.712 160.761 18.1147 161.679 17.688C162.617 17.24 163.641 17.016 164.751 17.016Z" fill="#0DB760"/>
<path fill-rule="evenodd" clip-rule="evenodd" d="M11.0297 44.9996V17.1703C11.0297 15.7138 11.2014 14.5975 10.3415 13.3109C9.63421 12.2515 8.41118 11.0975 6.86262 10.3218C5.83024 9.79205 4.62624 9.45147 3.36473 9.45147C3.13517 9.45147 2.90561 9.45147 2.6955 9.47029C3.93799 8.54352 6.00231 7.84352 7.89456 7.54059C6.00231 5.87573 3.55538 5.81883 0.936833 5.85691C0.630752 5.87573 0.306081 5.87573 0 5.89456C2.02628 4.17323 5.69622 3 9.90181 3C11.1253 3 12.2912 3.09456 13.3807 3.28368C16.2482 3.75648 19.0964 5.06192 20.6635 6.87824L32.4961 21.5778L45.2654 5.8H53.1786C53.6373 5.8 54 6.15941 54 6.61339V7.78619L48.2843 9.26192C47.8637 9.35691 47.5969 9.73515 47.6925 10.0753C47.7686 10.4159 48.1888 10.605 48.6094 10.4916L54 9.09205V10.4163L48.2843 11.8921C47.8637 12.0059 47.5969 12.3649 47.6925 12.7059C47.7686 13.0465 48.1888 13.2356 48.6094 13.1218L54 11.7406V13.0649L48.2843 14.5406C47.8637 14.6351 47.5969 15.0134 47.6925 15.354C47.7686 15.6946 48.1888 15.8837 48.6094 15.7703L54 14.3703V15.6946L48.2843 17.1703C47.8637 17.2841 47.5969 17.6431 47.6925 17.9837C47.7686 18.3243 48.1888 18.5134 48.6094 18.4L54 17.0188V18.3431L48.2843 19.8188C47.8637 19.9134 47.5969 20.2916 47.6925 20.6322C47.7686 20.9728 48.1888 21.1619 48.6094 21.0485L54 19.6485V20.9732L48.2843 22.4485C47.8637 22.5623 47.5969 22.9213 47.6925 23.2623C47.7686 23.6025 48.1888 23.7921 48.6094 23.6782L54 22.2971V23.6025L48.2843 25.0971C47.8637 25.1916 47.5969 25.5699 47.6925 25.9105C47.7686 26.2322 48.1888 26.4213 48.6094 26.3268L54 24.9268V26.251L48.2843 27.7268C47.8637 27.8402 47.5969 28.1996 47.6925 28.5402C47.7686 28.8803 48.1888 29.0699 48.6094 28.9565L54 27.5753V28.8803L48.2843 30.3561C47.8637 30.4699 47.5969 30.8477 47.6925 31.1694C47.7686 31.51 48.1888 31.6991 48.6094 31.6046L54 30.205V31.5293L48.2843 33.005C47.8637 33.1184 47.5969 33.4778 47.6925 33.8184C47.7686 34.159 48.1888 34.3481 48.6094 34.2347L54 32.8535V34.159L48.2843 35.6343C47.8637 35.7481 47.5969 36.1071 47.6925 36.4477C47.7686 36.7883 48.1888 36.9774 48.6094 36.8833L54 35.4832V36.8079L48.2843 38.2833C47.8637 38.3971 47.5969 38.7561 47.6925 39.0966C47.7686 39.4372 48.1888 39.6263 48.6094 39.513L54 38.1318V39.4372L48.2843 40.913C47.8637 41.0263 47.5969 41.3853 47.6925 41.7263C47.7686 42.0665 48.1888 42.2556 48.6094 42.1615L54 40.7615V44.205C53.9814 44.6402 53.6183 44.9991 53.1786 44.9991H44.2707V20.7272L32.4961 35.0678L20.836 20.7272V45H11.0297V44.9996Z" fill="#0DB760"/>
</svg>
